REM DIRINDEX 1\2,1\3,1\4,1\5
REM DIRNAME folder01,folder02,folder03,folder04,folder05
TITLE ""
FILE "CD2Track06.mp3" MP3
  TRACK 01 AUDIO
    TITLE "5:cjc156_2203"
    INDEX 01 00:00:00
  TRACK 02 AUDIO
    TITLE "0:"
    INDEX 01 00:01:21
  TRACK 03 AUDIO
    TITLE "2:cjc156_2204"
    INDEX 01 00:02:24
  TRACK 04 AUDIO
    TITLE "3:cjc156_2205"
    INDEX 01 00:04:38
  TRACK 05 AUDIO
    TITLE "2:cjc156_2206"
    INDEX 01 00:06:59
  TRACK 06 AUDIO
    TITLE "3:cjc156_2207"
    INDEX 01 00:08:28
  TRACK 07 AUDIO
    TITLE "2:cjc156_2208"
    INDEX 01 00:10:04
  TRACK 08 AUDIO
    TITLE "3:cjc156_2209"
    INDEX 01 00:12:07
  TRACK 09 AUDIO
    TITLE "2:cjc156_2210"
    INDEX 01 00:14:15
  TRACK 10 AUDIO
    TITLE "3:cjc156_2211"
    INDEX 01 00:15:74
  TRACK 11 AUDIO
    TITLE "2:cjc156_2212"
    INDEX 01 00:17:65
  TRACK 12 AUDIO
    TITLE "3:cjc156_2213"
    INDEX 01 00:19:73
  TRACK 13 AUDIO
    TITLE "2:cjc156_2214"
    INDEX 01 00:22:17
  TRACK 14 AUDIO
    TITLE "3:cjc156_2215"
    INDEX 01 00:24:27
  TRACK 15 AUDIO
    TITLE "2:cjc156_2216"
    INDEX 01 00:26:50
  TRACK 16 AUDIO
    TITLE "3:cjc156_2217"
    INDEX 01 00:28:35
  TRACK 17 AUDIO
    TITLE "2:cjc156_2218"
    INDEX 01 00:30:32
  TRACK 18 AUDIO
    TITLE "3:cjc156_2219"
    INDEX 01 00:31:69
  TRACK 19 AUDIO
    TITLE "2:cjc156_2220"
    INDEX 01 00:33:38
  TRACK 20 AUDIO
    TITLE "3:cjc156_2221"
    INDEX 01 00:35:51
  TRACK 21 AUDIO
    TITLE "2:cjc156_2222"
    INDEX 01 00:37:69
  TRACK 22 AUDIO
    TITLE "3:cjc156_2223"
    INDEX 01 00:40:13
  TRACK 23 AUDIO
    TITLE "2:cjc156_2224"
    INDEX 01 00:42:41
  TRACK 24 AUDIO
    TITLE "3:cjc156_2225"
    INDEX 01 00:44:50
  TRACK 25 AUDIO
    TITLE "2:cjc156_2226"
    INDEX 01 00:46:62
  TRACK 26 AUDIO
    TITLE "3:cjc156_2227"
    INDEX 01 00:48:42
  TRACK 27 AUDIO
    TITLE "2:cjc156_2228"
    INDEX 01 00:50:29
  TRACK 28 AUDIO
    TITLE "3:cjc156_2229"
    INDEX 01 00:52:69
  TRACK 29 AUDIO
    TITLE "2:cjc156_2230"
    INDEX 01 00:55:50
  TRACK 30 AUDIO
    TITLE "3:cjc156_2231"
    INDEX 01 00:57:48
  TRACK 31 AUDIO
    TITLE "2:cjc156_2232"
    INDEX 01 00:59:59
  TRACK 32 AUDIO
    TITLE "3:cjc156_2233"
    INDEX 01 01:02:22
  TRACK 33 AUDIO
    TITLE "2:cjc156_2234"
    INDEX 01 01:04:70
  TRACK 34 AUDIO
    TITLE "3:cjc156_2235"
    INDEX 01 01:07:04
  TRACK 35 AUDIO
    TITLE "2:cjc156_2236"
    INDEX 01 01:09:32
  TRACK 36 AUDIO
    TITLE "3:cjc156_2237"
    INDEX 01 01:10:47
  TRACK 37 AUDIO
    TITLE "2:cjc156_2238"
    INDEX 01 01:11:72
  TRACK 38 AUDIO
    TITLE "3:cjc156_2239"
    INDEX 01 01:13:20
  TRACK 39 AUDIO
    TITLE "2:cjc156_2240"
    INDEX 01 01:14:59
  TRACK 40 AUDIO
    TITLE "3:cjc156_2241"
    INDEX 01 01:16:71
  TRACK 41 AUDIO
    TITLE "2:cjc156_2242"
    INDEX 01 01:19:11
  TRACK 42 AUDIO
    TITLE "3:cjc156_2243"
    INDEX 01 01:20:51
  TRACK 43 AUDIO
    TITLE "2:cjc156_2244"
    INDEX 01 01:22:25
  TRACK 44 AUDIO
    TITLE "3:cjc156_2245"
    INDEX 01 01:23:48
  TRACK 45 AUDIO
    TITLE "2:cjc156_2246"
    INDEX 01 01:25:04
  TRACK 46 AUDIO
    TITLE "3:cjc156_2247"
    INDEX 01 01:26:46
  TRACK 47 AUDIO
    TITLE "2:cjc156_2248"
    INDEX 01 01:28:24
  TRACK 48 AUDIO
    TITLE "3:cjc156_2249"
    INDEX 01 01:29:68
  TRACK 49 AUDIO
    TITLE "2:cjc156_2250"
    INDEX 01 01:31:45
  TRACK 50 AUDIO
    TITLE "3:cjc156_2251"
    INDEX 01 01:33:11
  TRACK 51 AUDIO
    TITLE "2:cjc156_2252"
    INDEX 01 01:34:57
  TRACK 52 AUDIO
    TITLE "3:cjc156_2253"
    INDEX 01 01:36:33
  TRACK 53 AUDIO
    TITLE "2:cjc156_2254"
    INDEX 01 01:38:20
  TRACK 54 AUDIO
    TITLE "3:cjc156_2255"
    INDEX 01 01:40:19
  TRACK 55 AUDIO
    TITLE "2:cjc156_2256"
    INDEX 01 01:42:30
  TRACK 56 AUDIO
    TITLE "3:cjc156_2257"
    INDEX 01 01:44:23
  TRACK 57 AUDIO
    TITLE "2:cjc156_2258"
    INDEX 01 01:46:27
  TRACK 58 AUDIO
    TITLE "3:cjc156_2259"
    INDEX 01 01:48:60
  TRACK 59 AUDIO
    TITLE "2:cjc156_2260"
    INDEX 01 01:51:27
  TRACK 60 AUDIO
    TITLE "3:cjc156_2261"
    INDEX 01 01:53:14
  TRACK 61 AUDIO
    TITLE "2:cjc156_2262"
    INDEX 01 01:55:03
  TRACK 62 AUDIO
    TITLE "3:cjc156_2263"
    INDEX 01 01:57:57
  TRACK 63 AUDIO
    TITLE "2:cjc156_2264"
    INDEX 01 02:00:27
  TRACK 64 AUDIO
    TITLE "3:cjc156_2265"
    INDEX 01 02:02:24
  TRACK 65 AUDIO
    TITLE "2:cjc156_2266"
    INDEX 01 02:04:29
  TRACK 66 AUDIO
    TITLE "3:cjc156_2267"
    INDEX 01 02:06:57
  TRACK 67 AUDIO
    TITLE "2:cjc156_2268"
    INDEX 01 02:09:19
  TRACK 68 AUDIO
    TITLE "3:cjc156_2269"
    INDEX 01 02:11:29
  TRACK 69 AUDIO
    TITLE "2:cjc156_2270"
    INDEX 01 02:13:54
  TRACK 70 AUDIO
    TITLE "3:cjc156_2271"
    INDEX 01 02:16:11
  TRACK 71 AUDIO
    TITLE "2:cjc156_2272"
    INDEX 01 02:18:47
  TRACK 72 AUDIO
    TITLE "3:cjc156_2273"
    INDEX 01 02:19:70
  TRACK 73 AUDIO
    TITLE "2:cjc156_2274"
    INDEX 01 02:21:32
  TRACK 74 AUDIO
    TITLE "3:cjc156_2275"
    INDEX 01 02:23:19
  TRACK 75 AUDIO
    TITLE "2:cjc156_2276"
    INDEX 01 02:25:20
  TRACK 76 AUDIO
    TITLE "3:cjc156_2277"
    INDEX 01 02:27:14
  TRACK 77 AUDIO
    TITLE "2:cjc156_2278"
    INDEX 01 02:29:19
  TRACK 78 AUDIO
    TITLE "3:cjc156_2279"
    INDEX 01 02:30:42
  TRACK 79 AUDIO
    TITLE "2:cjc156_2280"
    INDEX 01 02:32:02
  TRACK 80 AUDIO
    TITLE "3:cjc156_2281"
    INDEX 01 02:33:60
  TRACK 81 AUDIO
    TITLE "2:cjc156_2282"
    INDEX 01 02:35:55
  TRACK 82 AUDIO
    TITLE "3:cjc156_2283"
    INDEX 01 02:37:25
  TRACK 83 AUDIO
    TITLE "2:cjc156_2284"
    INDEX 01 02:39:04
  TRACK 84 AUDIO
    TITLE "3:cjc156_2285"
    INDEX 01 02:40:54
  TRACK 85 AUDIO
    TITLE "2:cjc156_2286"
    INDEX 01 02:42:42
  TRACK 86 AUDIO
    TITLE "3:cjc156_2287"
    INDEX 01 02:43:63
  TRACK 87 AUDIO
    TITLE "2:cjc156_2288"
    INDEX 01 02:45:14
  TRACK 88 AUDIO
    TITLE "3:cjc156_2289"
    INDEX 01 02:47:05
  TRACK 89 AUDIO
    TITLE "2:cjc156_2290"
    INDEX 01 02:48:73
  TRACK 90 AUDIO
    TITLE "3:cjc156_2291"
    INDEX 01 02:50:59
  TRACK 91 AUDIO
    TITLE "2:cjc156_2292"
    INDEX 01 02:52:52
  TRACK 92 AUDIO
    TITLE "3:cjc156_2293"
    INDEX 01 02:54:19
  TRACK 93 AUDIO
    TITLE "2:cjc156_2294"
    INDEX 01 02:55:74
  TRACK 94 AUDIO
    TITLE "3:cjc156_2295"
    INDEX 01 02:57:69
  TRACK 95 AUDIO
    TITLE "2:cjc156_2296"
    INDEX 01 03:00:00
  TRACK 96 AUDIO
    TITLE "3:cjc156_2297"
    INDEX 01 03:02:62
  TRACK 97 AUDIO
    TITLE "2:cjc156_2298"
    INDEX 01 03:05:54
  TRACK 98 AUDIO
    TITLE "3:cjc156_2299"
    INDEX 01 03:07:73
  TRACK 99 AUDIO
    TITLE "2:cjc156_2300"
    INDEX 01 03:10:26
  TRACK 100 AUDIO
    TITLE "3:cjc156_2301"
    INDEX 01 03:11:59
  TRACK 101 AUDIO
    TITLE "2:cjc156_2302"
    INDEX 01 03:13:22
  TRACK 102 AUDIO
    TITLE "3:cjc156_2303"
    INDEX 01 03:15:08
  TRACK 103 AUDIO
    TITLE "2:cjc156_2304"
    INDEX 01 03:17:05
  TRACK 104 AUDIO
    TITLE "3:cjc156_2305"
    INDEX 01 03:19:07
  TRACK 105 AUDIO
    TITLE "2:cjc156_2306"
    INDEX 01 03:21:06
  TRACK 106 AUDIO
    TITLE "3:cjc156_2307"
    INDEX 01 03:23:07
  TRACK 107 AUDIO
    TITLE "2:cjc156_2308"
    INDEX 01 03:25:02
  TRACK 108 AUDIO
    TITLE "3:cjc156_2309"
    INDEX 01 03:28:00
  TRACK 109 AUDIO
    TITLE "2:cjc156_2310"
    INDEX 01 03:31:13
  TRACK 110 AUDIO
    TITLE "3:cjc156_2311"
    INDEX 01 03:33:35
  TRACK 111 AUDIO
    TITLE "2:cjc156_2312"
    INDEX 01 03:35:69
  TRACK 112 AUDIO
    TITLE "3:cjc156_2313"
    INDEX 01 03:37:50
  TRACK 113 AUDIO
    TITLE "2:cjc156_2314"
    INDEX 01 03:39:41
  TRACK 114 AUDIO
    TITLE "3:cjc156_2315"
    INDEX 01 03:40:72
  TRACK 115 AUDIO
    TITLE "2:cjc156_2316"
    INDEX 01 03:42:30
  TRACK 116 AUDIO
    TITLE "3:cjc156_2317"
    INDEX 01 03:44:45
  TRACK 117 AUDIO
    TITLE "2:cjc156_2318"
    INDEX 01 03:46:61
  TRACK 118 AUDIO
    TITLE "3:cjc156_2319"
    INDEX 01 03:48:27
  TRACK 119 AUDIO
    TITLE "2:cjc156_2320"
    INDEX 01 03:50:00
  TRACK 120 AUDIO
    TITLE "3:cjc156_2321"
    INDEX 01 03:52:44
  TRACK 121 AUDIO
    TITLE "2:cjc156_2322"
    INDEX 01 03:55:21
  TRACK 122 AUDIO
    TITLE "3:cjc156_2323"
    INDEX 01 03:56:69
  TRACK 123 AUDIO
    TITLE "2:cjc156_2324"
    INDEX 01 03:58:49
  TRACK 124 AUDIO
    TITLE "3:cjc156_2325"
    INDEX 01 03:59:74
  TRACK 125 AUDIO
    TITLE "2:cjc156_2326"
    INDEX 01 04:01:33
  TRACK 126 AUDIO
    TITLE "3:cjc156_2327"
    INDEX 01 04:02:74
  TRACK 127 AUDIO
    TITLE "2:cjc156_2328"
    INDEX 01 04:04:47
  TRACK 128 AUDIO
    TITLE "3:cjc156_2329"
    INDEX 01 04:06:15
  TRACK 129 AUDIO
    TITLE "2:cjc156_2330"
    INDEX 01 04:07:67
  TRACK 130 AUDIO
    TITLE "3:cjc156_2331"
    INDEX 01 04:10:20
  TRACK 131 AUDIO
    TITLE "2:cjc156_2332"
    INDEX 01 04:12:60
  TRACK 132 AUDIO
    TITLE "3:cjc156_2333"
    INDEX 01 04:14:22
  TRACK 133 AUDIO
    TITLE "2:cjc156_2334"
    INDEX 01 04:15:73
  TRACK 134 AUDIO
    TITLE "3:cjc156_2335"
    INDEX 01 04:17:44
  TRACK 135 AUDIO
    TITLE "2:cjc156_2336"
    INDEX 01 04:19:27
  TRACK 136 AUDIO
    TITLE "3:cjc156_2337"
    INDEX 01 04:20:56
  TRACK 137 AUDIO
    TITLE "2:cjc156_2338"
    INDEX 01 04:22:12
  TRACK 138 AUDIO
    TITLE "3:cjc156_2339"
    INDEX 01 04:24:03
  TRACK 139 AUDIO
    TITLE "2:cjc156_2340"
    INDEX 01 04:26:00
  TRACK 140 AUDIO
    TITLE "3:cjc156_2341"
    INDEX 01 04:27:52
  TRACK 141 AUDIO
    TITLE "2:cjc156_2342"
    INDEX 01 04:29:39
  TRACK 142 AUDIO
    TITLE "3:cjc156_2343"
    INDEX 01 04:31:42
  TRACK 143 AUDIO
    TITLE "2:cjc156_2344"
    INDEX 01 04:33:49
  TRACK 144 AUDIO
    TITLE "3:cjc156_2345"
    INDEX 01 04:34:62
  TRACK 145 AUDIO
    TITLE "2:cjc156_2346"
    INDEX 01 04:36:04
  TRACK 146 AUDIO
    TITLE "3:cjc156_2347"
    INDEX 01 04:37:57
  TRACK 147 AUDIO
    TITLE "2:cjc156_2348"
    INDEX 01 04:39:40
  TRACK 148 AUDIO
    TITLE "3:cjc156_2349"
    INDEX 01 04:42:15
  TRACK 149 AUDIO
    TITLE "2:cjc156_2350"
    INDEX 01 04:44:62
  TRACK 150 AUDIO
    TITLE "3:cjc156_2351"
    INDEX 01 04:46:01
  TRACK 151 AUDIO
    TITLE "2:cjc156_2352"
    INDEX 01 04:47:20
  TRACK 152 AUDIO
    TITLE "3:cjc156_2353"
    INDEX 01 04:48:33
  TRACK 153 AUDIO
    TITLE "2:cjc156_2354"
    INDEX 01 04:49:56
  TRACK 154 AUDIO
    TITLE "3:cjc156_2355"
    INDEX 01 04:50:73
  TRACK 155 AUDIO
    TITLE "2:cjc156_2356"
    INDEX 01 04:52:25
  TRACK 156 AUDIO
    TITLE "3:cjc156_2357"
    INDEX 01 04:53:61
  TRACK 157 AUDIO
    TITLE "2:cjc156_2358"
    INDEX 01 04:55:25
  TRACK 158 AUDIO
    TITLE "3:cjc156_2359"
    INDEX 01 04:57:28
  TRACK 159 AUDIO
    TITLE "2:cjc156_2360"
    INDEX 01 04:59:37
  TRACK 160 AUDIO
    TITLE "3:cjc156_2361"
    INDEX 01 05:00:58
  TRACK 161 AUDIO
    TITLE "2:cjc156_2362"
    INDEX 01 05:02:07
  TRACK 162 AUDIO
    TITLE "3:cjc156_2363"
    INDEX 01 05:04:08
  TRACK 163 AUDIO
    TITLE "2:cjc156_2364"
    INDEX 01 05:06:19
  TRACK 164 AUDIO
    TITLE "3:cjc156_2365"
    INDEX 01 05:08:14
  TRACK 165 AUDIO
    TITLE "2:cjc156_2366"
    INDEX 01 05:10:15
  TRACK 166 AUDIO
    TITLE "3:cjc156_2367"
    INDEX 01 05:11:59
  TRACK 167 AUDIO
    TITLE "2:cjc156_2368"
    INDEX 01 05:13:41
  TRACK 168 AUDIO
    TITLE "3:cjc156_2369"
    INDEX 01 05:14:71
  TRACK 169 AUDIO
    TITLE "2:cjc156_2370"
    INDEX 01 05:16:33
  TRACK 170 AUDIO
    TITLE "3:cjc156_2371"
    INDEX 01 05:18:36
  TRACK 171 AUDIO
    TITLE "2:cjc156_2372"
    INDEX 01 05:20:37
  TRACK 172 AUDIO
    TITLE "3:cjc156_2373"
    INDEX 01 05:21:58
  TRACK 173 AUDIO
    TITLE "2:cjc156_2374"
    INDEX 01 05:23:15
  TRACK 174 AUDIO
    TITLE "3:cjc156_2375"
    INDEX 01 05:24:60
  TRACK 175 AUDIO
    TITLE "2:cjc156_2376"
    INDEX 01 05:26:43
  TRACK 176 AUDIO
    TITLE "3:cjc156_2377"
    INDEX 01 05:27:56
  TRACK 177 AUDIO
    TITLE "2:cjc156_2378"
    INDEX 01 05:28:73
  TRACK 178 AUDIO
    TITLE "3:cjc156_2379"
    INDEX 01 05:30:55
  TRACK 179 AUDIO
    TITLE "2:cjc156_2380"
    INDEX 01 05:32:42
  TRACK 180 AUDIO
    TITLE "3:cjc156_2381"
    INDEX 01 05:34:37
  TRACK 181 AUDIO
    TITLE "2:cjc156_2382"
    INDEX 01 05:36:46
  TRACK 182 AUDIO
    TITLE "3:cjc156_2383"
    INDEX 01 05:37:72
  TRACK 183 AUDIO
    TITLE "2:cjc156_2384"
    INDEX 01 05:39:28
  TRACK 184 AUDIO
    TITLE "3:cjc156_2385"
    INDEX 01 05:40:57
  TRACK 185 AUDIO
    TITLE "2:cjc156_2386"
    INDEX 01 05:42:17
  TRACK 186 AUDIO
    TITLE "3:cjc156_2387"
    INDEX 01 05:43:36
  TRACK 187 AUDIO
    TITLE "2:cjc156_2388"
    INDEX 01 05:44:71
  TRACK 188 AUDIO
    TITLE "3:cjc156_2389"
    INDEX 01 05:46:17
  TRACK 189 AUDIO
    TITLE "2:cjc156_2390"
    INDEX 01 05:47:47
  TRACK 190 AUDIO
    TITLE "3:cjc156_2391"
    INDEX 01 05:49:42
  TRACK 191 AUDIO
    TITLE "2:cjc156_2392"
    INDEX 01 05:51:49
  TRACK 192 AUDIO
    TITLE "3:cjc156_2393"
    INDEX 01 05:54:06
  TRACK 193 AUDIO
    TITLE "2:cjc156_2394"
    INDEX 01 05:56:48
  TRACK 194 AUDIO
    TITLE "3:cjc156_2395"
    INDEX 01 05:57:73
  TRACK 195 AUDIO
    TITLE "2:cjc156_2396"
    INDEX 01 05:59:33
  TRACK 196 AUDIO
    TITLE "3:cjc156_2397"
    INDEX 01 06:00:58
  TRACK 197 AUDIO
    TITLE "2:cjc156_2398"
    INDEX 01 06:02:18
  TRACK 198 AUDIO
    TITLE "3:cjc156_2399"
    INDEX 01 06:04:34
  TRACK 199 AUDIO
    TITLE "2:cjc156_2400"
    INDEX 01 06:06:56
  TRACK 200 AUDIO
    TITLE "3:cjc156_2401"
    INDEX 01 06:08:24
  TRACK 201 AUDIO
    TITLE "2:cjc156_2402"
    INDEX 01 06:09:74
  TRACK 202 AUDIO
    TITLE "3:cjc156_2403"
    INDEX 01 06:12:14
  TRACK 203 AUDIO
    TITLE "2:cjc156_2404"
    INDEX 01 06:14:42
  TRACK 204 AUDIO
    TITLE "3:cjc156_2405"
    INDEX 01 06:16:71
  TRACK 205 AUDIO
    TITLE "2:cjc156_2406"
    INDEX 01 06:19:49
  TRACK 206 AUDIO
    TITLE "3:cjc156_2407"
    INDEX 01 06:21:29
  TRACK 207 AUDIO
    TITLE "2:cjc156_2408"
    INDEX 01 06:23:20
  TRACK 208 AUDIO
    TITLE "3:cjc156_2409"
    INDEX 01 06:24:35
  TRACK 209 AUDIO
    TITLE "2:cjc156_2410"
    INDEX 01 06:25:54
  TRACK 210 AUDIO
    TITLE "3:cjc156_2411"
    INDEX 01 06:27:27
  TRACK 211 AUDIO
    TITLE "2:cjc156_2412"
    INDEX 01 06:29:05
  TRACK 212 AUDIO
    TITLE "3:cjc156_2413"
    INDEX 01 06:30:65
  TRACK 213 AUDIO
    TITLE "2:cjc156_2414"
    INDEX 01 06:32:58
  TRACK 214 AUDIO
    TITLE "3:cjc156_2415"
    INDEX 01 06:34:74
  TRACK 215 AUDIO
    TITLE "2:cjc156_2416"
    INDEX 01 06:37:26
  TRACK 216 AUDIO
    TITLE "3:cjc156_2417"
    INDEX 01 06:39:50
  TRACK 217 AUDIO
    TITLE "2:cjc156_2418"
    INDEX 01 06:42:07
  TRACK 218 AUDIO
    TITLE "3:cjc156_2419"
    INDEX 01 06:44:28
  TRACK 219 AUDIO
    TITLE "2:cjc156_2420"
    INDEX 01 06:46:58
  TRACK 220 AUDIO
    TITLE "3:cjc156_2421"
    INDEX 01 06:48:20
  TRACK 221 AUDIO
    TITLE "2:cjc156_2422"
    INDEX 01 06:49:52
  TRACK 222 AUDIO
    TITLE "3:cjc156_2423"
    INDEX 01 06:51:49
  TRACK 223 AUDIO
    TITLE "2:cjc156_2424"
    INDEX 01 06:53:58
  TRACK 224 AUDIO
    TITLE "3:cjc156_2425"
    INDEX 01 06:56:00
  TRACK 225 AUDIO
    TITLE "2:cjc156_2426"
    INDEX 01 06:58:26
  TRACK 226 AUDIO
    TITLE "3:cjc156_2427"
    INDEX 01 06:59:39
  TRACK 227 AUDIO
    TITLE "2:cjc156_2428"
    INDEX 01 07:00:50
  TRACK 228 AUDIO
    TITLE "3:cjc156_2429"
    INDEX 01 07:02:26
  TRACK 229 AUDIO
    TITLE "2:cjc156_2430"
    INDEX 01 07:04:05
  TRACK 230 AUDIO
    TITLE "3:cjc156_2431"
    INDEX 01 07:05:44
  TRACK 231 AUDIO
    TITLE "2:cjc156_2432"
    INDEX 01 07:07:11
  TRACK 232 AUDIO
    TITLE "3:cjc156_2433"
    INDEX 01 07:09:00
  TRACK 233 AUDIO
    TITLE "2:cjc156_2434"
    INDEX 01 07:10:74
  TRACK 234 AUDIO
    TITLE "3:cjc156_2435"
    INDEX 01 07:12:53
  TRACK 235 AUDIO
    TITLE "2:cjc156_2436"
    INDEX 01 07:14:42
  TRACK 236 AUDIO
    TITLE "3:cjc156_2437"
    INDEX 01 07:16:06
  TRACK 237 AUDIO
    TITLE "2:cjc156_2438"
    INDEX 01 07:17:57
  TRACK 238 AUDIO
    TITLE "3:cjc156_2439"
    INDEX 01 07:19:57
  TRACK 239 AUDIO
    TITLE "2:cjc156_2440"
    INDEX 01 07:21:70
  TRACK 240 AUDIO
    TITLE "3:cjc156_2441"
    INDEX 01 07:23:73
  TRACK 241 AUDIO
    TITLE "2:cjc156_2442"
    INDEX 01 07:26:06
  TRACK 242 AUDIO
    TITLE "3:cjc156_2443"
    INDEX 01 07:28:00
  TRACK 243 AUDIO
    TITLE "2:cjc156_2444"
    INDEX 01 07:29:69
  TRACK 244 AUDIO
    TITLE "3:cjc156_2445"
    INDEX 01 07:31:39
  TRACK 245 AUDIO
    TITLE "2:cjc156_2446"
    INDEX 01 07:33:14
  TRACK 246 AUDIO
    TITLE "3:cjc156_2447"
    INDEX 01 07:35:00
  TRACK 247 AUDIO
    TITLE "2:cjc156_2448"
    INDEX 01 07:36:60
  TRACK 248 AUDIO
    TITLE "3:cjc156_2449"
    INDEX 01 07:38:27
  TRACK 249 AUDIO
    TITLE "2:cjc156_2450"
    INDEX 01 07:39:72
  TRACK 250 AUDIO
    TITLE "3:cjc156_2451"
    INDEX 01 07:42:15
  TRACK 251 AUDIO
    TITLE "2:cjc156_2452"
    INDEX 01 07:44:40
  TRACK 252 AUDIO
    TITLE "3:cjc156_2453"
    INDEX 01 07:45:41
  TRACK 253 AUDIO
    TITLE "2:cjc156_2454"
    INDEX 01 07:46:58
  TRACK 254 AUDIO
    TITLE "3:cjc156_2455"
    INDEX 01 07:48:14
  TRACK 255 AUDIO
    TITLE "2:cjc156_2456"
    INDEX 01 07:49:55
  TRACK 256 AUDIO
    TITLE "3:cjc156_2457"
    INDEX 01 07:51:57
  TRACK 257 AUDIO
    TITLE "2:cjc156_2458"
    INDEX 01 07:53:72
  TRACK 258 AUDIO
    TITLE "3:cjc156_2459"
    INDEX 01 07:55:63
  TRACK 259 AUDIO
    TITLE "2:cjc156_2460"
    INDEX 01 07:57:58
  TRACK 260 AUDIO
    TITLE "3:cjc156_2461"
    INDEX 01 07:59:04
  TRACK 261 AUDIO
    TITLE "2:cjc156_2462"
    INDEX 01 08:00:37
  TRACK 262 AUDIO
    TITLE "3:cjc156_2463"
    INDEX 01 08:01:34
  TRACK 263 AUDIO
    TITLE "2:cjc156_2464"
    INDEX 01 08:02:47
  TRACK 264 AUDIO
    TITLE "3:cjc156_2465"
    INDEX 01 08:04:11
  TRACK 265 AUDIO
    TITLE "2:cjc156_2466"
    INDEX 01 08:05:56
  TRACK 266 AUDIO
    TITLE "3:cjc156_2467"
    INDEX 01 08:07:29
  TRACK 267 AUDIO
    TITLE "2:cjc156_2468"
    INDEX 01 08:09:06
  TRACK 268 AUDIO
    TITLE "3:cjc156_2469"
    INDEX 01 08:10:68
  TRACK 269 AUDIO
    TITLE "2:cjc156_2470"
    INDEX 01 08:12:65
  TRACK 270 AUDIO
    TITLE "3:cjc156_2471"
    INDEX 01 08:14:23
  TRACK 271 AUDIO
    TITLE "2:cjc156_2472"
    INDEX 01 08:15:70
  TRACK 272 AUDIO
    TITLE "3:cjc156_2473"
    INDEX 01 08:17:25
  TRACK 273 AUDIO
    TITLE "2:cjc156_2474"
    INDEX 01 08:18:66
  TRACK 274 AUDIO
    TITLE "3:cjc156_2475"
    INDEX 01 08:20:36
  TRACK 275 AUDIO
    TITLE "2:cjc156_2476"
    INDEX 01 08:22:07
  TRACK 276 AUDIO
    TITLE "3:cjc156_2477"
    INDEX 01 08:23:59
  TRACK 277 AUDIO
    TITLE "2:cjc156_2478"
    INDEX 01 08:25:46
  TRACK 278 AUDIO
    TITLE "3:cjc156_2479"
    INDEX 01 08:27:08
  TRACK 279 AUDIO
    TITLE "2:cjc156_2480"
    INDEX 01 08:28:57
  TRACK 280 AUDIO
    TITLE "3:cjc156_2481"
    INDEX 01 08:30:05
  TRACK 281 AUDIO
    TITLE "2:cjc156_2482"
    INDEX 01 08:31:31
  TRACK 282 AUDIO
    TITLE "3:cjc156_2483"
    INDEX 01 08:33:01
  TRACK 283 AUDIO
    TITLE "2:cjc156_2484"
    INDEX 01 08:34:55
  TRACK 284 AUDIO
    TITLE "3:cjc156_2485"
    INDEX 01 08:36:31
  TRACK 285 AUDIO
    TITLE "2:cjc156_2486"
    INDEX 01 08:38:04
  TRACK 286 AUDIO
    TITLE "3:cjc156_2487"
    INDEX 01 08:39:54
  TRACK 287 AUDIO
    TITLE "2:cjc156_2488"
    INDEX 01 08:41:40
  TRACK 288 AUDIO
    TITLE "3:cjc156_2489"
    INDEX 01 08:43:05
  TRACK 289 AUDIO
    TITLE "2:cjc156_2490"
    INDEX 01 08:44:59
  TRACK 290 AUDIO
    TITLE "3:cjc156_2491"
    INDEX 01 08:46:15
  TRACK 291 AUDIO
    TITLE "2:cjc156_2492"
    INDEX 01 08:47:54
  TRACK 292 AUDIO
    TITLE "3:cjc156_2493"
    INDEX 01 08:49:55
  TRACK 293 AUDIO
    TITLE "2:cjc156_2494"
    INDEX 01 08:51:62
  TRACK 294 AUDIO
    TITLE "3:cjc156_2495"
    INDEX 01 08:53:66
  TRACK 295 AUDIO
    TITLE "2:cjc156_2496"
    INDEX 01 08:56:04
  TRACK 296 AUDIO
    TITLE "3:cjc156_2497"
    INDEX 01 08:57:68
  TRACK 297 AUDIO
    TITLE "2:cjc156_2498"
    INDEX 01 08:59:67
  TRACK 298 AUDIO
    TITLE "3:cjc156_2499"
    INDEX 01 09:02:54
  TRACK 299 AUDIO
    TITLE "0:"
    INDEX 01 09:05:48
